# xmcd
#
# Track frame offsets:
#	150
#	15077
#	28954
#	48081
#	69270
#	80935
#	89937
#	110040
#	121930
#	136294
#	148372
#	160824
#	183365
#	197804
#	207893
#	226683
#	238423
#	251551
#	268691
#	283768
#	296445
#	312311
#	328739
#
# Disc length: 4581 seconds
#
# Revision: 0
# Processed by: cddbd v1.5.1PL0 Copyright (c) Steve Scherf et al.
# Submitted via: audiograbber 1.83.01
#
DISCID=5f11e317
DTITLE=Johnny Cash - Live At  Austin, Texas 1994 Disk 1
DYEAR=1994
DGENRE=Country
TTITLE0=Folsom Prison Blues
TTITLE1=Get Rythm
TTITLE2=Sunday Morning Coming Down
TTITLE3=Ghost Riders In The Sky
TTITLE4=Cowboy's Prayer
TTITLE5=Oh Bury Me Not
TTITLE6=Big River
TTITLE7=I Walk The Line
TTITLE8=I Still Miss Someone
TTITLE9=Man In Black
TTITLE10=The Alamo
TTITLE11=Orange Blossom Special
TTITLE12=Death and Hell
TTITLE13=Delia
TTITLE14=Bird On A Wire
TTITLE15=The Beast In Me
TTITLE16=Tennessee Stud
TTITLE17=Down There By The Train
TTITLE18=Drive On
TTITLE19=Ring of Fire
TTITLE20=Jackson
TTITLE21=If I Were a Carpenter
TTITLE22=It Aint Me Babe
EXTD=
EXTT0=
EXTT1=
EXTT2=
EXTT3=
EXTT4=
EXTT5=
EXTT6=
EXTT7=
EXTT8=
EXTT9=
EXTT10=
EXTT11=
EXTT12=
EXTT13=
EXTT14=
EXTT15=
EXTT16=
EXTT17=
EXTT18=
EXTT19=
EXTT20=
EXTT21=
EXTT22=
PLAYORDER=
